<mxfile host="app.diagrams.net" modified="2023-08-06T20:27:11.937Z" agent="Mozilla/5.0 (Macintosh; Intel Mac OS X 10_15_7) AppleWebKit/605.1.15 (KHTML, like Gecko) Version/16.5.2 Safari/605.1.15" version="21.6.6" etag="eblSUT65tlrL-ub6_FQy" type="github">
  <diagram name="Page-1" id="LZB9dBl9Maga8fnUNB1n">
    <mxGraphModel>
      <root>
        <mxCell id="0" />
        <mxCell id="1" parent="0" />
      </root>
    </mxGraphModel>
  </diagram>
</mxfile>
